<?xml version="1.0" encoding="utf-8"?>
<!-- Generator: Adobe Illustrator 16.0.0, SVG Export Plug-In . SVG Version: 6.00 Build 0)  -->
<!DOCTYPE svg PUBLIC "-//W3C//DTD SVG 1.1//EN" "http://www.w3.org/Graphics/SVG/1.1/DTD/svg11.dtd">
<svg version="1.1"
	 id="svg3476" sodipodi:docname="CSS3.svg" inkscape:version="0.91 r13725" xmlns:sodipodi="http://sodipodi.sourceforge.net/DTD/sodipodi-0.dtd" xmlns:inkscape="http://www.inkscape.org/namespaces/inkscape" xmlns:dc="http://purl.org/dc/elements/1.1/" xmlns:svg="http://www.w3.org/2000/svg" xmlns:rdf="http://www.w3.org/1999/02/22-rdf-syntax-ns#" xmlns:cc="http://creativecommons.org/ns#"
	 xmlns="http://www.w3.org/2000/svg" xmlns:xlink="http://www.w3.org/1999/xlink" x="0px" y="0px" width="339px" height="363px"
	 viewBox="-27.406 60.3 339 363" enable-background="new -27.406 60.3 339 363" xml:space="preserve">
<sodipodi:namedview  inkscape:current-layer="layer1" inkscape:document-units="px" inkscape:pageshadow="2" inkscape:pageopacity="0.0" fit-margin-bottom="0" fit-margin-right="0" inkscape:window-width="1366" inkscape:window-height="704" inkscape:window-y="27" inkscape:window-x="0" id="base" inkscape:window-maximized="1" inkscape:zoom="0.35" fit-margin-left="0" fit-margin-top="0" pagecolor="#ffffff" bordercolor="#666666" inkscape:cy="256" inkscape:cx="181.367" showgrid="false" borderopacity="1.0">
	</sodipodi:namedview>
<polygon id="polygon2989" fill="#264DE4" points="290.187,80.496 263.751,376.656 144.916,409.6 26.409,376.701 0,80.496 "/>
<polygon id="polygon2991" fill="#2965F1" points="241.118,357.797 263.71,104.715 145.094,104.715 145.094,384.418 "/>
<polygon id="polygon2993" fill="#EBEBEB" points="60.542,214.573 63.798,250.902 145.094,250.902 145.094,214.573 "/>
<polygon id="polygon2995" fill="#EBEBEB" points="145.094,141.044 144.968,141.044 53.999,141.044 57.302,177.373 145.094,177.373 
	"/>
<polygon id="polygon2997" fill="#EBEBEB" points="145.094,346.719 145.094,308.922 144.934,308.965 104.475,298.04 101.888,269.067 
	82.229,269.067 65.421,269.067 70.51,326.108 144.927,346.766 "/>
<polygon id="polygon3005" fill="#FFFFFF" points="189.702,250.902 185.485,298.017 144.968,308.952 144.968,346.748 
	219.443,326.108 219.99,319.97 228.526,224.329 229.413,214.573 235.971,141.044 144.968,141.044 144.968,177.373 196.158,177.373 
	192.853,214.573 144.968,214.573 144.968,250.902 "/>
</svg>
