<?xml version="1.0" encoding="utf-8"?>
<!-- Generator: Adobe Illustrator 16.0.0, SVG Export Plug-In . SVG Version: 6.00 Build 0)  -->
<!DOCTYPE svg PUBLIC "-//W3C//DTD SVG 1.1//EN" "http://www.w3.org/Graphics/SVG/1.1/DTD/svg11.dtd">
<svg xmlns="http://www.w3.org/2000/svg" xmlns:xlink="http://www.w3.org/1999/xlink" x="0px" y="0px"
	 width="100px" height="100px" viewBox="247.64 370.945 100 100" enable-background="new 247.64 370.945 100 100"
	 xml:space="preserve">
<path d="M347.64,370.945c0,0-95.105,0-100,0v100c5.231,0,89.286,0,89.286,0c5.915,0,4.979,0,10.714,0v-89.286
	C347.64,375.744,347.64,375.744,347.64,370.945z M309.537,456.592c-1.875,0.335-2.567-0.826-2.567-1.785
	c0-1.206,0.045-7.366,0.045-12.344c0-3.482-1.16-5.692-2.522-6.854c8.259-0.915,16.965-2.054,16.965-16.316
	c0-4.063-1.451-6.094-3.817-8.706c0.38-0.96,1.651-4.911-0.38-10.044c-3.103-0.96-10.2,3.995-10.2,3.995
	c-2.946-0.826-6.139-1.25-9.286-1.25c-3.147,0-6.339,0.424-9.286,1.25c0,0-7.098-4.955-10.201-3.995
	c-2.031,5.111-0.781,9.063-0.379,10.044c-2.366,2.612-3.482,4.643-3.482,8.706c0,14.196,8.326,15.401,16.585,16.316
	c-1.071,0.96-2.031,2.612-2.366,4.978c-2.121,0.961-7.544,2.612-10.781-3.103c-2.031-3.526-5.692-3.816-5.692-3.816
	c-3.616-0.045-0.246,2.276-0.246,2.276c2.411,1.116,4.107,5.402,4.107,5.402c2.166,6.629,12.522,4.397,12.522,4.397
	c0,3.103,0.045,8.146,0.045,9.063c0,0.959-0.67,2.12-2.567,1.785c-14.732-4.933-25.045-18.951-25.045-35.334
	c0-20.491,15.67-36.049,36.161-36.049c20.491,0,37.099,15.558,37.099,36.049C334.27,437.641,324.27,451.681,309.537,456.592z
	 M287.64,442.955c-0.424,0.089-0.826-0.09-0.871-0.38c-0.044-0.335,0.246-0.625,0.67-0.715c0.424-0.044,0.826,0.134,0.87,0.425
	C288.377,442.575,288.086,442.865,287.64,442.955L287.64,442.955z M285.519,442.753c0,0.29-0.335,0.535-0.781,0.535
	c-0.491,0.045-0.826-0.2-0.826-0.535c0-0.29,0.335-0.536,0.781-0.536C285.117,442.173,285.519,442.418,285.519,442.753z
	 M282.461,442.507c-0.089,0.29-0.536,0.425-0.915,0.29c-0.424-0.089-0.714-0.424-0.625-0.714s0.536-0.424,0.915-0.335
	C282.283,441.882,282.573,442.217,282.461,442.507L282.461,442.507z M279.716,441.302c-0.201,0.246-0.625,0.201-0.96-0.134
	c-0.335-0.29-0.424-0.715-0.201-0.915c0.201-0.246,0.625-0.201,0.96,0.134C279.805,440.677,279.917,441.124,279.716,441.302z
	 M277.684,439.271c-0.201,0.134-0.58,0-0.826-0.335s-0.246-0.714,0-0.87c0.246-0.201,0.625-0.045,0.826,0.29
	C277.93,438.691,277.93,439.092,277.684,439.271z M276.234,437.106c-0.201,0.201-0.536,0.089-0.781-0.134
	c-0.246-0.29-0.29-0.625-0.089-0.781c0.201-0.201,0.536-0.09,0.781,0.134C276.39,436.615,276.434,436.95,276.234,437.106z
	 M274.738,435.454c-0.089,0.201-0.379,0.246-0.625,0.09c-0.29-0.134-0.424-0.38-0.334-0.581c0.089-0.134,0.334-0.2,0.625-0.089
	C274.694,435.03,274.827,435.276,274.738,435.454z"/>
</svg>
